<?xml version="1.0" encoding="UTF-8" standalone="no"?>
<svg
   xmlns:dc="http://purl.org/dc/elements/1.1/"
   xmlns:cc="http://creativecommons.org/ns#"
   xmlns:rdf="http://www.w3.org/1999/02/22-rdf-syntax-ns#"
   xmlns:svg="http://www.w3.org/2000/svg"
   xmlns="http://www.w3.org/2000/svg"
   xmlns:sodipodi="http://sodipodi.sourceforge.net/DTD/sodipodi-0.dtd"
   xmlns:inkscape="http://www.inkscape.org/namespaces/inkscape"
   width="693.29047pt"
   height="141.94922pt"
   viewBox="0 0 693.29046 141.94922"
   version="1.1"
   id="svg32"
   sodipodi:docname="logo-no-font.svg"
   inkscape:version="0.92.4 (5da689c313, 2019-01-14)"
   inkscape:export-filename="/home/daniel/Desktop/francopioli-webseite/logos/logo.png"
   inkscape:export-xdpi="96"
   inkscape:export-ydpi="96">
  <metadata
     id="metadata38">
    <rdf:RDF>
      <cc:Work
         rdf:about="">
        <dc:format>image/svg+xml</dc:format>
        <dc:type
           rdf:resource="http://purl.org/dc/dcmitype/StillImage" />
        <dc:title></dc:title>
      </cc:Work>
    </rdf:RDF>
  </metadata>
  <defs
     id="defs36" />
  <sodipodi:namedview
     pagecolor="#ffffff"
     bordercolor="#666666"
     borderopacity="1"
     objecttolerance="20"
     gridtolerance="20"
     guidetolerance="20"
     inkscape:pageopacity="0"
     inkscape:pageshadow="2"
     inkscape:window-width="2560"
     inkscape:window-height="1371"
     id="namedview34"
     showgrid="false"
     inkscape:snap-text-baseline="false"
     showguides="true"
     inkscape:guide-bbox="true"
     inkscape:snap-to-guides="true"
     fit-margin-top="0"
     fit-margin-left="0"
     fit-margin-right="0"
     fit-margin-bottom="0"
     inkscape:zoom="0.70710678"
     inkscape:cx="41.054325"
     inkscape:cy="102.3095"
     inkscape:window-x="0"
     inkscape:window-y="27"
     inkscape:window-maximized="1"
     inkscape:current-layer="svg32">
    <sodipodi:guide
       position="126.28661,141.95578"
       orientation="0,1"
       id="guide857"
       inkscape:locked="false" />
    <sodipodi:guide
       position="3e-06,96.499996"
       orientation="1,0"
       id="guide859"
       inkscape:locked="false" />
    <sodipodi:guide
       position="204.31775,102.35762"
       orientation="1,0"
       id="guide861"
       inkscape:locked="false" />
    <sodipodi:guide
       position="128.09873,0.028616987"
       orientation="0,1"
       id="guide865"
       inkscape:locked="false" />
  </sodipodi:namedview>
  <g
     id="surface2"
     transform="translate(-113.60156,-17.601562)">
    <path
       style="fill:#008404;fill-opacity:1;fill-rule:evenodd;stroke:none"
       d="M 201.10156,150.14844 307.30078,87.199219 c -0.86719,-19.765625 -7.93359,-36.183594 -21.19922,-49.25 -13.30078,-13.066407 -29.88672,-19.847657 -49.75,-20.347657 -17.86719,0.363282 -33.15234,5.980469 -45.85156,16.847657 -12.73438,10.835937 -20.73438,24.765625 -24,41.800781 18.13281,7.234375 32.18359,13.785156 42.14844,19.648438 9.96875,5.867192 15.01953,8.968752 15.15234,9.300782 5.26563,-2.46484 10.55078,-3.89844 15.84766,-4.30078 5.30078,-0.39844 8.15234,-0.53125 8.55078,-0.39844 -7.30078,1.36719 -13.14844,3.56641 -17.55078,6.60156 -4.36328,3 -6.59766,4.66407 -6.69922,5 C 215.85156,105.5 206.98437,99.484375 197.35156,94.050781 187.75,88.648438 178.26562,83.917969 168.89844,79.851562 c -0.26563,-0.136718 -0.53125,-0.25 -0.79688,-0.351562 -0.66797,-0.300781 -1.33594,-0.601562 -2,-0.898438 0,0 0,0 0,0 -3.60156,-1.566406 -8.70312,-3.550781 -15.30078,-5.953124 -6.56641,-2.433594 -12.60156,-4.613282 -18.10156,-6.546876 -5.46484,-1.902343 -8.36719,-2.917968 -8.69922,-3.050781 3.33203,1.199219 8,3.050781 14,5.550781 5.96484,2.5 11.75,4.964844 17.35156,7.398438 5.56641,2.433594 9.39844,4.132812 11.5,5.101562 17.23047,8.230469 30.98047,15.832032 41.25,22.796878 10.29688,6.93359 15.58203,10.61719 15.84766,11.05078 6.90234,-5.33203 13.33594,-8.5 19.30078,-9.5 5.96484,-0.96484 9.14844,-1.33203 9.55078,-1.09766 -9.30078,2.86328 -16.41797,6.53125 -21.35156,11 -4.96485,4.4336 -7.46485,6.88282 -7.5,7.34766 -7.9336,-7.23438 -16.28125,-13.76563 -25.05078,-19.59766 C 190.13281,97.234375 181.41797,92.035156 172.75,87.5 156.64844,79.066406 142.89844,72.882812 131.5,68.949219 120.06641,64.984375 114.10156,63.015625 113.60156,63.050781 134,70.984375 151.26562,79.582031 165.39844,88.851562 c 0.20312,13.265628 3.5,25.230468 9.90234,35.898438 6.39844,10.69922 15,19.16797 25.80078,25.39844"
       id="path2"
       inkscape:connector-curvature="0" />
    <path
       style="fill:#008404;fill-opacity:1;fill-rule:evenodd;stroke:none"
       d="M 236.44922,159.55078 C 255.28516,159.11719 271.21484,152.93359 284.25,141 297.28516,129.06641 304.86719,113.89844 307,95.5 l -70.55078,64.05078"
       id="path4"
       inkscape:connector-curvature="0" />
    <path
       style="fill:#3d663f;fill-opacity:1;fill-rule:evenodd;stroke:none"
       d="m 226.14844,120.19922 c -1.4336,1.60156 -2.16407,2.43359 -2.19922,2.5 -0.89844,-0.83203 -1.81641,-1.66406 -2.75,-2.5 -7.66406,0.19922 -13.98438,0.96875 -18.94922,2.30078 -5,1.33203 -7.58203,2.96484 -7.75,4.89844 0.19922,2.03515 3.06641,3.73437 8.60156,5.10156 5.5,1.36719 12.39844,2.08203 20.69922,2.14844 1.23438,0 2.41406,-0.0156 3.55078,-0.0469 l 19.59766,-11.65234 c -5.16406,-1.59766 -12.09766,-2.51563 -20.80078,-2.75"
       id="path6"
       inkscape:connector-curvature="0" />
    <path
       style="fill:#999999;fill-opacity:1;fill-rule:evenodd;stroke:none"
       d="m 246.94922,123 -19.59766,11.60156 c 7.4336,-0.26953 13.54688,-1.05078 18.34766,-2.35156 4.76562,-1.33203 7.23437,-2.93359 7.40234,-4.80078 C 253,125.75 250.94922,124.26563 246.94922,123"
       id="path8"
       inkscape:connector-curvature="0" />
    <path
       style="fill:#fad776;fill-opacity:1;fill-rule:evenodd;stroke:none"
       d="m 296.5,86.101562 c -0.16797,6.730469 -2.48438,12.332032 -6.94922,16.796878 -4.46875,4.46875 -10.06641,6.78515 -16.80078,6.95312 -6.69922,-0.16797 -12.28516,-2.48437 -16.75,-6.95312 -4.46484,-4.464846 -6.78516,-10.066409 -6.94922,-16.796878 0.16406,-6.703124 2.48438,-12.285156 6.94922,-16.75 4.46484,-4.46875 10.05078,-6.785156 16.75,-6.953124 6.73437,0.167968 12.33203,2.484374 16.80078,6.953124 4.46484,4.464844 6.78125,10.046876 6.94922,16.75"
       id="path10"
       inkscape:connector-curvature="0" />
    <path
       style="fill:#fce199;fill-opacity:1;fill-rule:evenodd;stroke:none"
       d="m 289.5,78.148438 c -2.23438,2.269531 -5.31641,2.117187 -9.25,-0.449219 -3.63281,-3.03125 -4.69922,-5.933594 -3.19922,-8.699219 2.23438,-2.265625 5.31641,-2.117188 9.25,0.449219 3.63281,3.035156 4.69922,5.933593 3.19922,8.699219"
       id="path12"
       inkscape:connector-curvature="0" />
    <path
       style="fill:#ebc869;fill-opacity:1;fill-rule:evenodd;stroke:none"
       d="m 252.89844,88.75 c -1.09766,-2.734375 -1.66407,-5.648438 -1.69922,-8.75 0,-1.632812 0.16797,-3.214844 0.5,-4.75 -1.73438,3.300781 -2.61719,6.917969 -2.64844,10.851562 0,0.53125 0.0156,1.046876 0.0508,1.546876 1.29688,0.269531 2.56641,0.636718 3.79688,1.101562"
       id="path14"
       inkscape:connector-curvature="0" />
    <path
       style="fill:#ebc869;fill-opacity:1;fill-rule:evenodd;stroke:none"
       d="m 261.85156,99.699219 c -2.70312,-1.765625 -4.93359,-4 -6.70312,-6.699219 -1.73047,-1.066406 -3.59766,-1.832031 -5.59766,-2.300781 -0.10156,-0.5 -0.18359,-0.984375 -0.25,-1.449219 1.63281,9.265625 6.73438,15.63281 15.30078,19.10156 -0.26953,-3.16797 -1.18359,-6.05078 -2.75,-8.652341"
       id="path16"
       inkscape:connector-curvature="0" />
    <path
       style="fill:#b0c735;fill-opacity:1;fill-rule:evenodd;stroke:none"
       d="m 265.94922,108.80078 c -0.46485,-0.13281 -0.9336,-0.28515 -1.39844,-0.44922 0.46484,0.16407 0.93359,0.31641 1.39844,0.44922"
       id="path18"
       inkscape:connector-curvature="0" />
    <path
       style="fill:#b0c735;fill-opacity:1;fill-rule:evenodd;stroke:none"
       d="m 249.30078,89.148438 c -0.0664,-0.5 -0.11719,-0.980469 -0.15234,-1.449219 0.0352,0.46875 0.0859,0.949219 0.15234,1.449219"
       id="path20"
       inkscape:connector-curvature="0" />
    <path
       style="fill:#ebc869;fill-opacity:1;fill-rule:evenodd;stroke:none"
       d="m 294.55078,93.300781 c -4.60156,6.597657 -11.13281,10.066409 -19.60156,10.398439 -3.13281,-0.0312 -6.08203,-0.61719 -8.84766,-1.75 0.86328,2.26562 1.33203,4.68359 1.39844,7.25 1.69922,0.40234 3.46484,0.60156 5.30078,0.60156 5.39844,-0.10156 10.11719,-1.66797 14.14844,-4.69922 4.03515,-3 6.85156,-6.953122 8.44922,-11.85156 -0.26563,0.03516 -0.54688,0.05078 -0.84766,0.05078"
       id="path22"
       inkscape:connector-curvature="0" />
    <path
       style="fill:#ffffff;fill-opacity:1;fill-rule:evenodd;stroke:none"
       d="M 292.94922,90.550781 C 287.38281,90.417969 282.75,88.5 279.05078,84.800781 c -3.69922,-3.734375 -5.61719,-8.367187 -5.75,-13.902343 0,-3.03125 0.61719,-5.832032 1.84766,-8.398438 -0.76563,-0.06641 -1.54688,-0.101562 -2.34766,-0.101562 -0.26562,0 -0.51562,0 -0.75,0 -1.06641,2.636718 -1.61719,5.46875 -1.65234,8.5 0.16797,6.367187 2.36718,11.667968 6.60156,15.902343 4.26562,4.265625 9.58203,6.464844 15.94922,6.597657 0.83594,0 1.65234,-0.03125 2.44922,-0.09766 0.30078,-1 0.55078,-2 0.75,-3 -1.03125,0.164063 -2.09766,0.25 -3.19922,0.25"
       id="path24"
       inkscape:connector-curvature="0" />
    <path
       style="fill:#ffffff;fill-opacity:1;fill-rule:evenodd;stroke:none"
       d="m 249.10156,87.648438 c 0.0664,1.035156 0.19922,2.050781 0.39844,3.050781 8.80078,2.535156 13.81641,8.417969 15.05078,17.652341 0.93359,0.33203 1.89844,0.61328 2.89844,0.84766 -0.23438,-5.46484 -2.05078,-10.164064 -5.44922,-14.097658 -3.36719,-3.902343 -7.66797,-6.386718 -12.89844,-7.453124"
       id="path26"
       inkscape:connector-curvature="0" />
  </g>
  <g
     id="surface4"
     transform="translate(231.7014,-124.1064)">
    <g
       aria-label="Datenschutz &amp; 
Vereinsmanagement"
       style="font-style:normal;font-variant:normal;font-weight:normal;font-stretch:normal;font-size:30px;line-height:1.10000002;font-family:'Futura Md BT';-inkscape-font-specification:'Futura Md BT, Normal';font-variant-ligatures:normal;font-variant-caps:normal;font-variant-numeric:normal;font-feature-settings:normal;text-align:start;writing-mode:lr-tb;text-anchor:start;fill:#002a46"
       id="0">
      <path
         d="m -16.516422,158.14893 h 5.078125 q 4.1894529,0 6.2714841,-0.5586 2.1074219,-0.55859 3.65625,-1.8789 2.10742188,-1.80274 3.1484375,-4.46875 1.0664063,-2.69141 1.0664063,-6.2461 0,-3.55469 -1.0664063,-6.2207 -1.04101562,-2.69141 -3.1484375,-4.49414 -1.5742187,-1.32031 -3.7832031,-1.87891 -2.1835938,-0.55859 -6.855469,-0.55859 h -2.183594 -2.183593 z m -6.042969,5.45898 V 126.43604 H -14.409 q 7.9472652,0 11.1718746,0.8125 3.25,0.7871 5.6875,2.66601 3.2246094,2.46289 4.875,6.32227 1.6757813,3.85937 1.6757813,8.81054 0,4.95118 -1.6757813,8.78516 -1.6503906,3.80859 -4.875,6.29687 -2.4375,1.87891 -5.5605469,2.69141 -3.0976562,0.78711 -9.6738277,0.78711 h -1.625 z"
         style="font-style:normal;font-variant:normal;font-weight:normal;font-stretch:normal;font-size:52px;font-family:'Futura Md BT';-inkscape-font-specification:'Futura Md BT, Normal';font-variant-ligatures:normal;font-variant-caps:normal;font-variant-numeric:normal;font-feature-settings:normal;text-align:start;writing-mode:lr-tb;text-anchor:start"
         id="path835" />
      <path
         d="m 38.124203,163.60791 h -5.509766 v -3.12305 q -1.472656,2.08203 -3.453125,3.09766 -1.955078,1.01562 -4.494141,1.01562 -5.103515,0 -8.048828,-3.47851 -2.919922,-3.50391 -2.919922,-9.57227 0,-5.76367 2.996094,-9.29297 2.996094,-3.55468 7.820313,-3.55468 2.945312,0 5.027343,1.24414 2.107422,1.21875 3.072266,3.52929 v -3.93554 h 5.509766 z m -5.357422,-12.11133 q 0,-3.73242 -1.751953,-5.81445 -1.726563,-2.08203 -4.84961,-2.08203 -3.123047,0 -4.925781,2.1582 -1.777344,2.13281 -1.777344,5.94141 0,3.83398 1.726563,5.91601 1.726562,2.08203 4.875,2.08203 2.970703,0 4.824219,-2.25976 1.878906,-2.25977 1.878906,-5.94141 z"
         style="font-style:normal;font-variant:normal;font-weight:normal;font-stretch:normal;font-size:52px;font-family:'Futura Md BT';-inkscape-font-specification:'Futura Md BT, Normal';font-variant-ligatures:normal;font-variant-caps:normal;font-variant-numeric:normal;font-feature-settings:normal;text-align:start;writing-mode:lr-tb;text-anchor:start"
         id="path837" />
      <path
         d="m 47.036312,163.60791 v -19.24609 h -4.214844 v -4.82422 h 4.214844 v -9.11524 h 5.509766 v 9.11524 h 4.214843 v 4.82422 h -4.214843 v 19.24609 z"
         style="font-style:normal;font-variant:normal;font-weight:normal;font-stretch:normal;font-size:52px;font-family:'Futura Md BT';-inkscape-font-specification:'Futura Md BT, Normal';font-variant-ligatures:normal;font-variant-caps:normal;font-variant-numeric:normal;font-feature-settings:normal;text-align:start;writing-mode:lr-tb;text-anchor:start"
         id="path839" />
      <path
         d="M 84.665218,152.38525 H 65.419125 q 0.203125,3.37696 2.005859,5.28125 1.802734,1.87891 4.798828,1.87891 2.666016,0 4.443359,-1.11719 1.777344,-1.11718 3.097657,-3.60547 l 4.646484,2.58985 q -2.03125,3.63086 -5.027344,5.4082 -2.996093,1.77734 -7.033203,1.77734 -5.789062,0 -9.216797,-3.52929 -3.427734,-3.5293 -3.427734,-9.41992 0,-5.66211 3.529297,-9.29297 3.554687,-3.65625 9.115234,-3.65625 5.814453,0 9.064453,3.32617 3.25,3.32617 3.25,9.31836 z m -5.71289,-3.70703 q -0.330078,-2.58984 -1.980469,-3.93554 -1.650391,-1.3711 -4.519531,-1.3711 -2.716797,0 -4.367188,1.32031 -1.65039,1.32032 -2.310547,3.98633 z"
         style="font-style:normal;font-variant:normal;font-weight:normal;font-stretch:normal;font-size:52px;font-family:'Futura Md BT';-inkscape-font-specification:'Futura Md BT, Normal';font-variant-ligatures:normal;font-variant-caps:normal;font-variant-numeric:normal;font-feature-settings:normal;text-align:start;writing-mode:lr-tb;text-anchor:start"
         id="path841" />
      <path
         d="M 90.42889,163.60791 V 139.5376 h 5.179688 v 3.93554 q 1.65039,-2.48828 3.884765,-3.63085 2.234377,-1.14258 5.433597,-1.14258 2.6914,0 4.57031,0.86328 1.9043,0.83789 2.9707,2.51367 0.63477,0.99023 0.91407,2.31055 0.27929,1.32031 0.27929,4.62109 v 14.59961 h -5.56054 v -12.36523 q 0,-4.74805 -1.16797,-6.29688 -1.14258,-1.57422 -4.08789,-1.57422 -1.92969,0 -3.453129,0.71094 -1.498047,0.71094 -2.361328,2.00586 -0.609375,0.86328 -0.863282,2.23437 -0.228515,1.34571 -0.228515,4.31641 v 10.96875 z"
         style="font-style:normal;font-variant:normal;font-weight:normal;font-stretch:normal;font-size:52px;font-family:'Futura Md BT';-inkscape-font-specification:'Futura Md BT, Normal';font-variant-ligatures:normal;font-variant-caps:normal;font-variant-numeric:normal;font-feature-settings:normal;text-align:start;writing-mode:lr-tb;text-anchor:start"
         id="path843" />
      <path
         d="m 118.23162,159.24072 4.57032,-2.48828 q 0.50781,1.80274 1.8789,2.74219 1.3711,0.93945 3.5293,0.93945 1.85352,0 2.89453,-0.83789 1.06641,-0.86328 1.06641,-2.33594 0,-1.95507 -3.75781,-3.35156 -1.26954,-0.45703 -1.95508,-0.76172 -3.85938,-1.59961 -5.40821,-3.25 -1.52343,-1.65039 -1.52343,-4.01172 0,-3.22461 2.51367,-5.23046 2.53906,-2.00586 6.70312,-2.00586 2.79297,0 4.77344,1.04101 2.00586,1.01563 2.91992,2.91992 l -3.91015,2.69141 q -0.43164,-1.14258 -1.52344,-1.80273 -1.06641,-0.68555 -2.48828,-0.68555 -1.57422,0 -2.53906,0.76172 -0.93946,0.73633 -0.93946,1.98047 0,1.8789 4.26563,3.42773 1.3457,0.48242 2.08203,0.78711 3.32617,1.32031 4.74805,2.99609 1.44726,1.65039 1.44726,4.13868 0,3.60546 -2.61523,5.6621 -2.61524,2.03125 -7.21094,2.03125 -3.5293,0 -5.86524,-1.32031 -2.33593,-1.32031 -3.65625,-4.03711 z"
         style="font-style:normal;font-variant:normal;font-weight:normal;font-stretch:normal;font-size:52px;font-family:'Futura Md BT';-inkscape-font-specification:'Futura Md BT, Normal';font-variant-ligatures:normal;font-variant-caps:normal;font-variant-numeric:normal;font-feature-settings:normal;text-align:start;writing-mode:lr-tb;text-anchor:start"
         id="path845" />
      <path
         d="m 161.11639,146.39307 q -1.26953,-1.39649 -2.9707,-2.13282 -1.67578,-0.73632 -3.63086,-0.73632 -3.37696,0 -5.40821,2.18359 -2.03125,2.18359 -2.03125,5.78906 0,3.75781 2.03125,5.91602 2.05665,2.13281 5.66211,2.13281 2.00586,0 3.58008,-0.73633 1.57422,-0.76172 2.76758,-2.28515 v 6.34765 q -1.52344,0.86328 -3.27539,1.29492 -1.72656,0.43164 -3.68164,0.43164 -5.66211,0 -9.24219,-3.60546 -3.55469,-3.60547 -3.55469,-9.34375 0,-5.81446 3.68164,-9.36914 3.70704,-3.58008 9.67383,-3.58008 1.87891,0 3.45313,0.38086 1.57422,0.35547 2.94531,1.11718 z"
         style="font-style:normal;font-variant:normal;font-weight:normal;font-stretch:normal;font-size:52px;font-family:'Futura Md BT';-inkscape-font-specification:'Futura Md BT, Normal';font-variant-ligatures:normal;font-variant-caps:normal;font-variant-numeric:normal;font-feature-settings:normal;text-align:start;writing-mode:lr-tb;text-anchor:start"
         id="path847" />
      <path
         d="m 166.80389,163.60791 v -39.35547 h 5.17969 v 19.2207 q 1.65039,-2.48828 3.88476,-3.63085 2.23438,-1.14258 5.4336,-1.14258 2.6914,0 4.57031,0.86328 1.9043,0.83789 2.9707,2.51367 0.63477,0.99023 0.91407,2.31055 0.27929,1.32031 0.27929,4.62109 v 14.59961 h -5.56054 v -12.36523 q 0,-4.74805 -1.16797,-6.29688 -1.14258,-1.57422 -4.08789,-1.57422 -1.92969,0 -3.45313,0.71094 -1.49805,0.71094 -2.36133,2.00586 -0.60937,0.86328 -0.86328,2.23437 -0.22851,1.34571 -0.22851,4.31641 v 10.96875 z"
         style="font-style:normal;font-variant:normal;font-weight:normal;font-stretch:normal;font-size:52px;font-family:'Futura Md BT';-inkscape-font-specification:'Futura Md BT, Normal';font-variant-ligatures:normal;font-variant-caps:normal;font-variant-numeric:normal;font-feature-settings:normal;text-align:start;writing-mode:lr-tb;text-anchor:start"
         id="path849" />
      <path
         d="m 202.70623,139.5376 v 13.55859 q 0,3.50391 1.44727,5.02735 1.44727,1.52343 4.69727,1.52343 3.25,0 4.69726,-1.52343 1.44727,-1.52344 1.44727,-5.02735 V 139.5376 h 5.50976 v 11.9082 q 0,6.90625 -2.76758,10.0293 -2.76757,3.12304 -8.83593,3.12304 -6.16993,0 -8.9375,-3.09765 -2.76758,-3.09766 -2.76758,-10.05469 v -11.9082 z"
         style="font-style:normal;font-variant:normal;font-weight:normal;font-stretch:normal;font-size:52px;font-family:'Futura Md BT';-inkscape-font-specification:'Futura Md BT, Normal';font-variant-ligatures:normal;font-variant-caps:normal;font-variant-numeric:normal;font-feature-settings:normal;text-align:start;writing-mode:lr-tb;text-anchor:start"
         id="path851" />
      <path
         d="m 229.23944,163.60791 v -19.24609 h -4.21485 v -4.82422 h 4.21485 v -9.11524 h 5.50976 v 9.11524 h 4.21485 v 4.82422 h -4.21485 v 19.24609 z"
         style="font-style:normal;font-variant:normal;font-weight:normal;font-stretch:normal;font-size:52px;font-family:'Futura Md BT';-inkscape-font-specification:'Futura Md BT, Normal';font-variant-ligatures:normal;font-variant-caps:normal;font-variant-numeric:normal;font-feature-settings:normal;text-align:start;writing-mode:lr-tb;text-anchor:start"
         id="path853" />
      <path
         d="m 262.19647,163.60791 h -22.36914 l 13.40625,-19.24609 h -12.06055 v -4.82422 h 21.02344 l -13.12695,19.24609 h 13.12695 z"
         style="font-style:normal;font-variant:normal;font-weight:normal;font-stretch:normal;font-size:52px;font-family:'Futura Md BT';-inkscape-font-specification:'Futura Md BT, Normal';font-variant-ligatures:normal;font-variant-caps:normal;font-variant-numeric:normal;font-feature-settings:normal;text-align:start;writing-mode:lr-tb;text-anchor:start"
         id="path855" />
      <path
         d="m 293.47772,139.89307 1.37109,-0.78711 q 1.42188,-0.83789 2.13281,-1.92969 0.71094,-1.11719 0.71094,-2.48828 0,-1.57422 -0.96484,-2.56445 -0.96485,-1.01563 -2.51367,-1.01563 -1.70118,0 -2.74219,1.01563 -1.04102,1.01562 -1.04102,2.61523 0,0.78711 0.2793,1.52344 0.30469,0.73633 0.91406,1.39648 z m 6.67773,16.22461 -8.125,-9.36914 -0.93945,0.63476 q -2.66602,1.72656 -3.73242,3.17383 -1.04102,1.42187 -1.04102,3.17383 0,2.46289 1.72656,4.16406 1.72657,1.70117 4.29102,1.70117 1.9043,0 3.83398,-0.86328 1.95508,-0.86328 3.98633,-2.61523 z m 6.42383,7.49023 -2.99609,-3.5293 q -2.64063,2.25977 -5.4336,3.35157 -2.76757,1.0664 -6.06836,1.0664 -5.1289,0 -8.35351,-2.9707 -3.19922,-2.9707 -3.19922,-7.64258 0,-3.17383 1.98047,-5.83984 1.98047,-2.69141 6.29687,-5.38282 l -1.49804,-1.625 q -1.24414,-1.3457 -1.9043,-2.94531 -0.66016,-1.59961 -0.66016,-3.25 0,-3.65625 2.66602,-5.99219 2.69141,-2.36132 6.90625,-2.36132 4.18945,0 6.65234,2.13281 2.46289,2.10742 2.46289,5.71289 0,2.7168 -1.72656,4.97656 -1.72656,2.23438 -5.50976,4.44336 l 7.74414,8.98828 q 1.11718,-1.11718 2.28515,-2.53906 1.16797,-1.42187 2.48828,-3.27539 l 3.55469,3.7832 q -1.01562,1.625 -2.25976,3.09766 -1.24415,1.44726 -2.69141,2.7168 l 6.24609,7.08398 z"
         style="font-style:normal;font-variant:normal;font-weight:normal;font-stretch:normal;font-size:52px;font-family:'Futura Md BT';-inkscape-font-specification:'Futura Md BT, Normal';font-variant-ligatures:normal;font-variant-caps:normal;font-variant-numeric:normal;font-feature-settings:normal;text-align:start;writing-mode:lr-tb;text-anchor:start"
         id="path857" />
      <path
         d="m -10.75275,222.25518 -16.580079,-38.61914 h 6.271485 l 8.328125,19.80468 q 0.736328,1.72657 1.21875,3.19922 0.482422,1.44727 0.761719,2.76758 0.330078,-1.39648 0.8378902,-2.89453 0.5078125,-1.49805 1.1933594,-3.07227 l 8.30273438,-19.80468 H 5.8273277 Z"
         style="font-style:normal;font-variant:normal;font-weight:normal;font-stretch:normal;font-size:52px;font-family:'Futura Md BT';-inkscape-font-specification:'Futura Md BT, Normal';font-variant-ligatures:normal;font-variant-caps:normal;font-variant-numeric:normal;font-feature-settings:normal;text-align:start;writing-mode:lr-tb;text-anchor:start"
         id="path859" />
      <path
         d="M 29.516781,209.58526 H 10.270687 q 0.203125,3.37695 2.005859,5.28125 1.802735,1.8789 4.798829,1.8789 2.666015,0 4.443359,-1.11719 1.777344,-1.11718 3.097656,-3.60546 l 4.646485,2.58984 q -2.03125,3.63086 -5.027344,5.4082 -2.996094,1.77735 -7.033203,1.77735 -5.789063,0 -9.2167971,-3.5293 -3.4277344,-3.5293 -3.4277344,-9.41992 0,-5.66211 3.5292969,-9.29297 3.5546876,-3.65625 9.1152346,-3.65625 5.814453,0 9.064453,3.32617 3.25,3.32617 3.25,9.31836 z m -5.712891,-3.70704 q -0.330078,-2.58984 -1.980469,-3.93554 -1.65039,-1.3711 -4.519531,-1.3711 -2.716797,0 -4.367187,1.32032 -1.650391,1.32031 -2.310547,3.98632 z"
         style="font-style:normal;font-variant:normal;font-weight:normal;font-stretch:normal;font-size:52px;font-family:'Futura Md BT';-inkscape-font-specification:'Futura Md BT, Normal';font-variant-ligatures:normal;font-variant-caps:normal;font-variant-numeric:normal;font-feature-settings:normal;text-align:start;writing-mode:lr-tb;text-anchor:start"
         id="path861" />
      <path
         d="m 40.790218,200.57158 q 0.888672,-2.38672 2.335938,-3.52929 1.472656,-1.14258 3.630859,-1.14258 1.167969,0 2.285156,0.2793 1.142579,0.27929 2.234375,0.8125 l -1.980468,4.67187 q -0.710938,-0.50781 -1.548828,-0.73633 -0.8125,-0.2539 -1.828125,-0.2539 -2.742188,0 -3.935547,2.20898 -1.19336,2.18359 -1.19336,7.36328 v 10.5625 h -5.509765 v -24.12109 h 5.509765 z"
         style="font-style:normal;font-variant:normal;font-weight:normal;font-stretch:normal;font-size:52px;font-family:'Futura Md BT';-inkscape-font-specification:'Futura Md BT, Normal';font-variant-ligatures:normal;font-variant-caps:normal;font-variant-numeric:normal;font-feature-settings:normal;text-align:start;writing-mode:lr-tb;text-anchor:start"
         id="path863" />
      <path
         d="M 77.657406,209.58526 H 58.411312 q 0.203125,3.37695 2.005859,5.28125 1.802735,1.8789 4.798829,1.8789 2.666015,0 4.443359,-1.11719 1.777344,-1.11718 3.097656,-3.60546 l 4.646485,2.58984 q -2.03125,3.63086 -5.027344,5.4082 -2.996094,1.77735 -7.033203,1.77735 -5.789063,0 -9.216797,-3.5293 -3.427735,-3.5293 -3.427735,-9.41992 0,-5.66211 3.529297,-9.29297 3.554688,-3.65625 9.115235,-3.65625 5.814453,0 9.064453,3.32617 3.25,3.32617 3.25,9.31836 z m -5.712891,-3.70704 q -0.330078,-2.58984 -1.980469,-3.93554 -1.65039,-1.3711 -4.519531,-1.3711 -2.716797,0 -4.367187,1.32032 -1.650391,1.32031 -2.310547,3.98632 z"
         style="font-style:normal;font-variant:normal;font-weight:normal;font-stretch:normal;font-size:52px;font-family:'Futura Md BT';-inkscape-font-specification:'Futura Md BT, Normal';font-variant-ligatures:normal;font-variant-caps:normal;font-variant-numeric:normal;font-feature-settings:normal;text-align:start;writing-mode:lr-tb;text-anchor:start"
         id="path865" />
      <path
         d="m 82.938656,186.32744 q 0,-1.39648 1.015625,-2.41211 1.041015,-1.01562 2.46289,-1.01562 1.472657,0 2.4375,0.99023 0.990235,0.96485 0.990235,2.4375 0,1.47266 -0.990235,2.48828 -0.990234,0.99024 -2.4375,0.99024 -1.421875,0 -2.46289,-1.01563 -1.015625,-1.04101 -1.015625,-2.46289 z m 0.736328,34.48047 V 196.7376 h 5.509766 v 24.07031 z"
         style="font-style:normal;font-variant:normal;font-weight:normal;font-stretch:normal;font-size:52px;font-family:'Futura Md BT';-inkscape-font-specification:'Futura Md BT, Normal';font-variant-ligatures:normal;font-variant-caps:normal;font-variant-numeric:normal;font-feature-settings:normal;text-align:start;writing-mode:lr-tb;text-anchor:start"
         id="path867" />
      <path
         d="M 97.030453,220.80791 V 196.7376 h 5.179687 v 3.93555 q 1.65039,-2.48829 3.88477,-3.63086 2.23437,-1.14258 5.43359,-1.14258 2.69141,0 4.57031,0.86328 1.9043,0.83789 2.97071,2.51367 0.63476,0.99024 0.91406,2.31055 0.27929,1.32031 0.27929,4.62109 v 14.59961 h -5.56054 v -12.36523 q 0,-4.74805 -1.16797,-6.29688 -1.14258,-1.57422 -4.08789,-1.57422 -1.92969,0 -3.45313,0.71094 -1.49804,0.71094 -2.36132,2.00586 -0.60938,0.86328 -0.86329,2.23438 -0.22851,1.3457 -0.22851,4.3164 v 10.96875 z"
         style="font-style:normal;font-variant:normal;font-weight:normal;font-stretch:normal;font-size:52px;font-family:'Futura Md BT';-inkscape-font-specification:'Futura Md BT, Normal';font-variant-ligatures:normal;font-variant-caps:normal;font-variant-numeric:normal;font-feature-settings:normal;text-align:start;writing-mode:lr-tb;text-anchor:start"
         id="path869" />
      <path
         d="m 124.83319,216.44072 4.57031,-2.48828 q 0.50781,1.80274 1.87891,2.74219 1.37109,0.93945 3.52929,0.93945 1.85352,0 2.89453,-0.83789 1.06641,-0.86328 1.06641,-2.33593 0,-1.95508 -3.75781,-3.35157 -1.26953,-0.45703 -1.95508,-0.76172 -3.85938,-1.59961 -5.4082,-3.25 -1.52344,-1.65039 -1.52344,-4.01171 0,-3.22461 2.51367,-5.23047 2.53906,-2.00586 6.70313,-2.00586 2.79296,0 4.77343,1.04101 2.00586,1.01563 2.91993,2.91992 l -3.91016,2.69141 q -0.43164,-1.14258 -1.52344,-1.80273 -1.0664,-0.68555 -2.48828,-0.68555 -1.57422,0 -2.53906,0.76172 -0.93946,0.73633 -0.93946,1.98047 0,1.8789 4.26563,3.42773 1.3457,0.48242 2.08203,0.78711 3.32617,1.32031 4.74805,2.99609 1.44726,1.6504 1.44726,4.13868 0,3.60547 -2.61523,5.66211 -2.61524,2.03125 -7.21094,2.03125 -3.5293,0 -5.86523,-1.32032 -2.33594,-1.32031 -3.65625,-4.03711 z"
         style="font-style:normal;font-variant:normal;font-weight:normal;font-stretch:normal;font-size:52px;font-family:'Futura Md BT';-inkscape-font-specification:'Futura Md BT, Normal';font-variant-ligatures:normal;font-variant-caps:normal;font-variant-numeric:normal;font-feature-settings:normal;text-align:start;writing-mode:lr-tb;text-anchor:start"
         id="path871" />
      <path
         d="m 155.25116,220.80791 h -5.50977 V 196.7376 h 5.17969 v 3.93555 q 1.65039,-2.51368 3.73242,-3.65625 2.10742,-1.16797 4.95117,-1.16797 2.81836,0 4.67188,1.19336 1.85351,1.16797 2.81836,3.58007 1.90429,-2.48828 4.03711,-3.63085 2.1582,-1.14258 4.90039,-1.14258 2.38671,0 4.16406,0.88867 1.77734,0.86328 2.76758,2.53906 0.45703,0.78711 0.66015,1.87891 0.22852,1.09179 0.22852,3.12304 v 1.92969 14.59961 h -5.50977 v -12.36523 q 0,-4.84961 -1.04101,-6.37305 -1.01563,-1.54883 -3.65625,-1.54883 -3.25,0 -4.64649,2.08203 -1.37109,2.05664 -1.37109,7.23633 v 10.96875 h -5.56055 v -12.36523 q 0,-4.46875 -1.09179,-6.19532 -1.06641,-1.72656 -3.70704,-1.72656 -1.625,0 -2.9707,0.73633 -1.3457,0.73633 -2.13281,2.03125 -0.50781,0.83789 -0.71094,2.05664 -0.20312,1.21875 -0.20312,4.49414 z"
         style="font-style:normal;font-variant:normal;font-weight:normal;font-stretch:normal;font-size:52px;font-family:'Futura Md BT';-inkscape-font-specification:'Futura Md BT, Normal';font-variant-ligatures:normal;font-variant-caps:normal;font-variant-numeric:normal;font-feature-settings:normal;text-align:start;writing-mode:lr-tb;text-anchor:start"
         id="path873" />
      <path
         d="m 217.88983,220.80791 h -5.50977 v -3.12305 q -1.47265,2.08204 -3.45312,3.09766 -1.95508,1.01563 -4.49414,1.01563 -5.10352,0 -8.04883,-3.47852 -2.91992,-3.50391 -2.91992,-9.57227 0,-5.76367 2.99609,-9.29296 2.99609,-3.55469 7.82031,-3.55469 2.94532,0 5.02735,1.24414 2.10742,1.21875 3.07226,3.5293 v -3.93555 h 5.50977 z m -5.35742,-12.11133 q 0,-3.73242 -1.75196,-5.81445 -1.72656,-2.08203 -4.84961,-2.08203 -3.12304,0 -4.92578,2.1582 -1.77734,2.13281 -1.77734,5.94141 0,3.83398 1.72656,5.91601 1.72656,2.08204 4.875,2.08204 2.9707,0 4.82422,-2.25977 1.87891,-2.25977 1.87891,-5.94141 z"
         style="font-style:normal;font-variant:normal;font-weight:normal;font-stretch:normal;font-size:52px;font-family:'Futura Md BT';-inkscape-font-specification:'Futura Md BT, Normal';font-variant-ligatures:normal;font-variant-caps:normal;font-variant-numeric:normal;font-feature-settings:normal;text-align:start;writing-mode:lr-tb;text-anchor:start"
         id="path875" />
      <path
         d="M 225.50702,220.80791 V 196.7376 h 5.17968 v 3.93555 q 1.65039,-2.48829 3.88477,-3.63086 2.23437,-1.14258 5.43359,-1.14258 2.69141,0 4.57031,0.86328 1.9043,0.83789 2.97071,2.51367 0.63476,0.99024 0.91406,2.31055 0.2793,1.32031 0.2793,4.62109 v 14.59961 h -5.56055 v -12.36523 q 0,-4.74805 -1.16797,-6.29688 -1.14258,-1.57422 -4.08789,-1.57422 -1.92969,0 -3.45312,0.71094 -1.49805,0.71094 -2.36133,2.00586 -0.60938,0.86328 -0.86328,2.23438 -0.22852,1.3457 -0.22852,4.3164 v 10.96875 z"
         style="font-style:normal;font-variant:normal;font-weight:normal;font-stretch:normal;font-size:52px;font-family:'Futura Md BT';-inkscape-font-specification:'Futura Md BT, Normal';font-variant-ligatures:normal;font-variant-caps:normal;font-variant-numeric:normal;font-feature-settings:normal;text-align:start;writing-mode:lr-tb;text-anchor:start"
         id="path877" />
      <path
         d="M 278.72577,220.80791 H 273.216 v -3.12305 q -1.47266,2.08204 -3.45313,3.09766 -1.95507,1.01563 -4.49414,1.01563 -5.10351,0 -8.04882,-3.47852 -2.91993,-3.50391 -2.91993,-9.57227 0,-5.76367 2.9961,-9.29296 2.99609,-3.55469 7.82031,-3.55469 2.94531,0 5.02734,1.24414 2.10743,1.21875 3.07227,3.5293 v -3.93555 h 5.50977 z m -5.35743,-12.11133 q 0,-3.73242 -1.75195,-5.81445 -1.72656,-2.08203 -4.84961,-2.08203 -3.12305,0 -4.92578,2.1582 -1.77734,2.13281 -1.77734,5.94141 0,3.83398 1.72656,5.91601 1.72656,2.08204 4.875,2.08204 2.9707,0 4.82422,-2.25977 1.8789,-2.25977 1.8789,-5.94141 z"
         style="font-style:normal;font-variant:normal;font-weight:normal;font-stretch:normal;font-size:52px;font-family:'Futura Md BT';-inkscape-font-specification:'Futura Md BT, Normal';font-variant-ligatures:normal;font-variant-caps:normal;font-variant-numeric:normal;font-feature-settings:normal;text-align:start;writing-mode:lr-tb;text-anchor:start"
         id="path879" />
      <path
         d="m 303.63397,208.69658 q 0,-3.73242 -1.75195,-5.81445 -1.72657,-2.08203 -4.84961,-2.08203 -3.12305,0 -4.92579,2.1582 -1.77734,2.13281 -1.77734,5.94141 0,3.83398 1.72656,5.91601 1.72657,2.08204 4.875,2.08204 2.97071,0 4.82422,-2.25977 1.87891,-2.25977 1.87891,-5.94141 z m 5.35742,10.61328 q 0,7.0586 -2.81836,9.92774 -2.81836,2.89453 -9.49609,2.89453 -4.97657,0 -7.94727,-2.10742 -2.9707,-2.08203 -3.02148,-5.56055 l 5.91601,-0.0254 q 0.12696,1.54883 1.44727,2.36133 1.32031,0.8125 3.70703,0.8125 3.5293,0 5.07812,-1.54883 1.54883,-1.54883 1.57422,-5.17969 l 0.0508,-3.19922 q -1.47265,2.08204 -3.45312,3.09766 -1.95508,1.01563 -4.49414,1.01563 -5.10352,0 -8.04883,-3.47852 -2.91992,-3.50391 -2.91992,-9.57227 0,-5.76367 2.99609,-9.29296 2.9961,-3.55469 7.82032,-3.55469 2.94531,0 5.02734,1.24414 2.10742,1.21875 3.07226,3.5293 v -3.93555 h 5.50977 z"
         style="font-style:normal;font-variant:normal;font-weight:normal;font-stretch:normal;font-size:52px;font-family:'Futura Md BT';-inkscape-font-specification:'Futura Md BT, Normal';font-variant-ligatures:normal;font-variant-caps:normal;font-variant-numeric:normal;font-feature-settings:normal;text-align:start;writing-mode:lr-tb;text-anchor:start"
         id="path881" />
      <path
         d="m 339.79022,209.58526 h -19.2461 q 0.20313,3.37695 2.00586,5.28125 1.80274,1.8789 4.79883,1.8789 2.66602,0 4.44336,-1.11719 1.77735,-1.11718 3.09766,-3.60546 l 4.64648,2.58984 q -2.03125,3.63086 -5.02734,5.4082 -2.9961,1.77735 -7.0332,1.77735 -5.78907,0 -9.2168,-3.5293 -3.42774,-3.5293 -3.42774,-9.41992 0,-5.66211 3.5293,-9.29297 3.55469,-3.65625 9.11524,-3.65625 5.81445,0 9.06445,3.32617 3.25,3.32617 3.25,9.31836 z m -5.71289,-3.70704 q -0.33008,-2.58984 -1.98047,-3.93554 -1.65039,-1.3711 -4.51953,-1.3711 -2.7168,0 -4.36719,1.32032 -1.65039,1.32031 -2.31055,3.98632 z"
         style="font-style:normal;font-variant:normal;font-weight:normal;font-stretch:normal;font-size:52px;font-family:'Futura Md BT';-inkscape-font-specification:'Futura Md BT, Normal';font-variant-ligatures:normal;font-variant-caps:normal;font-variant-numeric:normal;font-feature-settings:normal;text-align:start;writing-mode:lr-tb;text-anchor:start"
         id="path883" />
      <path
         d="m 351.06366,220.80791 h -5.50977 V 196.7376 h 5.17969 v 3.93555 q 1.65039,-2.51368 3.73242,-3.65625 2.10742,-1.16797 4.95117,-1.16797 2.81836,0 4.67188,1.19336 1.85351,1.16797 2.81836,3.58007 1.90429,-2.48828 4.03711,-3.63085 2.1582,-1.14258 4.90039,-1.14258 2.38671,0 4.16406,0.88867 1.77734,0.86328 2.76758,2.53906 0.45703,0.78711 0.66015,1.87891 0.22852,1.09179 0.22852,3.12304 v 1.92969 14.59961 h -5.50977 v -12.36523 q 0,-4.84961 -1.04101,-6.37305 -1.01563,-1.54883 -3.65625,-1.54883 -3.25,0 -4.64649,2.08203 -1.37109,2.05664 -1.37109,7.23633 v 10.96875 h -5.56055 v -12.36523 q 0,-4.46875 -1.09179,-6.19532 -1.06641,-1.72656 -3.70704,-1.72656 -1.625,0 -2.9707,0.73633 -1.3457,0.73633 -2.13281,2.03125 -0.50781,0.83789 -0.71094,2.05664 -0.20312,1.21875 -0.20312,4.49414 z"
         style="font-style:normal;font-variant:normal;font-weight:normal;font-stretch:normal;font-size:52px;font-family:'Futura Md BT';-inkscape-font-specification:'Futura Md BT, Normal';font-variant-ligatures:normal;font-variant-caps:normal;font-variant-numeric:normal;font-feature-settings:normal;text-align:start;writing-mode:lr-tb;text-anchor:start"
         id="path885" />
      <path
         d="m 414.23553,209.58526 h -19.24609 q 0.20312,3.37695 2.00586,5.28125 1.80273,1.8789 4.79882,1.8789 2.66602,0 4.44336,-1.11719 1.77735,-1.11718 3.09766,-3.60546 l 4.64648,2.58984 q -2.03125,3.63086 -5.02734,5.4082 -2.99609,1.77735 -7.0332,1.77735 -5.78906,0 -9.2168,-3.5293 -3.42773,-3.5293 -3.42773,-9.41992 0,-5.66211 3.52929,-9.29297 3.55469,-3.65625 9.11524,-3.65625 5.81445,0 9.06445,3.32617 3.25,3.32617 3.25,9.31836 z m -5.71289,-3.70704 q -0.33008,-2.58984 -1.98047,-3.93554 -1.65039,-1.3711 -4.51953,-1.3711 -2.7168,0 -4.36719,1.32032 -1.65039,1.32031 -2.31054,3.98632 z"
         style="font-style:normal;font-variant:normal;font-weight:normal;font-stretch:normal;font-size:52px;font-family:'Futura Md BT';-inkscape-font-specification:'Futura Md BT, Normal';font-variant-ligatures:normal;font-variant-caps:normal;font-variant-numeric:normal;font-feature-settings:normal;text-align:start;writing-mode:lr-tb;text-anchor:start"
         id="path887" />
      <path
         d="M 419.9992,220.80791 V 196.7376 h 5.17969 v 3.93555 q 1.65039,-2.48829 3.88477,-3.63086 2.23437,-1.14258 5.43359,-1.14258 2.69141,0 4.57031,0.86328 1.9043,0.83789 2.97071,2.51367 0.63476,0.99024 0.91406,2.31055 0.27929,1.32031 0.27929,4.62109 v 14.59961 h -5.56054 v -12.36523 q 0,-4.74805 -1.16797,-6.29688 -1.14258,-1.57422 -4.08789,-1.57422 -1.92969,0 -3.45313,0.71094 -1.49804,0.71094 -2.36132,2.00586 -0.60938,0.86328 -0.86329,2.23438 -0.22851,1.3457 -0.22851,4.3164 v 10.96875 z"
         style="font-style:normal;font-variant:normal;font-weight:normal;font-stretch:normal;font-size:52px;font-family:'Futura Md BT';-inkscape-font-specification:'Futura Md BT, Normal';font-variant-ligatures:normal;font-variant-caps:normal;font-variant-numeric:normal;font-feature-settings:normal;text-align:start;writing-mode:lr-tb;text-anchor:start"
         id="path889" />
      <path
         d="m 451.86444,220.80791 v -19.24609 h -4.21485 v -4.82422 h 4.21485 v -9.11524 h 5.50976 v 9.11524 h 4.21485 v 4.82422 h -4.21485 v 19.24609 z"
         style="font-style:normal;font-variant:normal;font-weight:normal;font-stretch:normal;font-size:52px;font-family:'Futura Md BT';-inkscape-font-specification:'Futura Md BT, Normal';font-variant-ligatures:normal;font-variant-caps:normal;font-variant-numeric:normal;font-feature-settings:normal;text-align:start;writing-mode:lr-tb;text-anchor:start"
         id="path891" />
    </g>
    <g
       aria-label=" "
       transform="translate(17.4,196.55)"
       style="font-size:30px;font-family:'Futura Md BT';fill:#002a46"
       id="text845" />
    <g
       aria-label="Franco Pioli"
       style="font-style:normal;font-variant:normal;font-weight:normal;font-stretch:normal;font-size:28px;font-family:Helvetica;-inkscape-font-specification:'Helvetica, Normal';font-variant-ligatures:normal;font-variant-caps:normal;font-variant-numeric:normal;font-feature-settings:normal;text-align:start;writing-mode:lr-tb;text-anchor:start;fill:#002a46"
       id="1">
      <path
         d="m -27.317217,265.02121 v -20.09766 0 h 13.917969 v 0 1.20313 1.20312 0 h -11.197266 v 0 6.13868 0 h 9.802735 v 1.20312 1.20313 0 h -9.802735 v 0 9.14648 h -1.353515 z"
         style="font-style:normal;font-variant:normal;font-weight:normal;font-stretch:normal;font-size:28px;font-family:Helvetica;-inkscape-font-specification:'Helvetica, Normal';font-variant-ligatures:normal;font-variant-caps:normal;font-variant-numeric:normal;font-feature-settings:normal;text-align:start;writing-mode:lr-tb;text-anchor:start;fill:#002a46"
         id="path895" />
      <path
         d="m -10.446123,265.02121 v -14.62891 0 h 1.1621093 1.1757812 v 0 2.50196 0 0 q 0.3144531,-0.58789 0.6699219,-1.06641 1.3945312,-1.87305 3.4316406,-1.87305 0.3417969,0 0.6972656,0.12305 v 2.51563 l -0.5058593,-0.0137 q -1.9960938,0 -3.0898438,1.20313 -1.0800781,1.18945 -1.0800781,3.4043 v 0 7.83398 0 h -1.2304688 -1.2304686 z"
         style="font-style:normal;font-variant:normal;font-weight:normal;font-stretch:normal;font-size:28px;font-family:Helvetica;-inkscape-font-specification:'Helvetica, Normal';font-variant-ligatures:normal;font-variant-caps:normal;font-variant-numeric:normal;font-feature-settings:normal;text-align:start;writing-mode:lr-tb;text-anchor:start;fill:#002a46"
         id="path897" />
      <path
         d="m 2.4191113,265.41769 q -2.14648442,0 -3.40429692,-1.14843 -1.25781248,-1.14844 -1.25781248,-3.10352 0,-1.96875 1.1757812,-3.13086 1.18945315,-1.16211 3.4589844,-1.44922 l 3.3496094,-0.42383 q 0.4101562,-0.041 0.7792969,-0.13671 0.4785156,-0.12305 0.7382812,-0.49219 0.2597656,-0.36914 0.2597656,-0.92969 v -0.12305 q 0,-1.17578 -0.8886718,-1.83203 -0.8886719,-0.66992 -2.4746094,-0.66992 -1.5175781,0 -2.3789063,0.71094 -0.84765622,0.69726 -1.0253906,2.0918 v 0 h -2.2695312 v 0 q 0.1777343,-2.40625 1.69531245,-3.60938 1.51757815,-1.2168 4.34765625,-1.2168 2.6660156,0 4.0605469,1.16211 1.3945312,1.14844 1.3945312,3.36328 v 8.03907 q 0,0.36914 0.2187499,0.60156 0.232422,0.21875 0.615235,0.21875 0.109375,0 0.314453,-0.0273 0.21875,-0.0274 0.464843,-0.082 v 1.77735 q -0.355468,0.13672 -0.751953,0.21875 -0.396484,0.082 -0.669922,0.082 -1.3945309,0 -2.0234371,-0.76563 -0.4101563,-0.50586 -0.5878906,-1.43554 v 0 q -0.2734375,0.34179 -0.6289063,0.65625 -1.8457031,1.65429 -4.5117187,1.65429 z m 5.0996093,-6.19336 v -1.58593 0 q -0.6835937,0.32812 -1.5175781,0.45117 l -2.2558594,0.32812 q -1.7773437,0.2461 -2.5976562,0.83399 -0.82031252,0.57422 -0.82031252,1.57226 0,1.23047 0.66992187,1.90039 0.66992185,0.65625 1.90039065,0.65625 1.9414062,0 3.28125,-1.05273 0.9160156,-0.73828 1.2167969,-1.66797 0.054687,-0.17773 0.082031,-0.56055 0.041016,-0.39648 0.041016,-0.875 z"
         style="font-style:normal;font-variant:normal;font-weight:normal;font-stretch:normal;font-size:28px;font-family:Helvetica;-inkscape-font-specification:'Helvetica, Normal';font-variant-ligatures:normal;font-variant-caps:normal;font-variant-numeric:normal;font-feature-settings:normal;text-align:start;writing-mode:lr-tb;text-anchor:start;fill:#002a46"
         id="path899" />
      <path
         d="m 14.14958,265.02121 v -14.62891 0 h 1.162109 1.175782 v 0 2.16016 0 0 l 0.546875,-0.72461 q 1.599609,-1.87305 4.005859,-1.87305 2.419922,0 3.732422,1.3125 1.3125,1.3125 1.3125,3.73243 v 10.02148 0 h -1.230469 -1.230469 v 0 -9.1875 q 0,-1.92773 -0.751953,-2.77539 -0.738281,-0.86133 -2.40625,-0.86133 -1.777343,0 -2.816406,1.35352 -1.039062,1.33984 -1.039062,3.63672 v 0 7.83398 0 H 15.380049 14.14958 Z"
         style="font-style:normal;font-variant:normal;font-weight:normal;font-stretch:normal;font-size:28px;font-family:Helvetica;-inkscape-font-specification:'Helvetica, Normal';font-variant-ligatures:normal;font-variant-caps:normal;font-variant-numeric:normal;font-feature-settings:normal;text-align:start;writing-mode:lr-tb;text-anchor:start;fill:#002a46"
         id="path901" />
      <path
         d="m 41.27458,259.75754 v 0 q -0.382812,2.76172 -1.955078,4.21094 -1.572266,1.44921 -4.183594,1.44921 -2.912109,0 -4.648437,-2.09179 -1.736328,-2.0918 -1.736328,-5.63282 0,-3.54101 1.791015,-5.63281 1.804688,-2.10547 4.839844,-2.10547 2.638672,0 4.210937,1.44922 1.572266,1.43555 1.681641,3.96485 v 0 h -2.365234 v 0 q -0.150391,-1.57227 -1.09375,-2.4336 -0.94336,-0.86133 -2.515625,-0.86133 -1.859375,0 -2.925782,1.50391 -1.052734,1.49023 -1.052734,4.11523 0,2.78907 0.984375,4.19727 0.984375,1.4082 2.925781,1.4082 1.435547,0 2.392578,-0.91601 0.970704,-0.92969 1.285157,-2.625 v 0 z"
         style="font-style:normal;font-variant:normal;font-weight:normal;font-stretch:normal;font-size:28px;font-family:Helvetica;-inkscape-font-specification:'Helvetica, Normal';font-variant-ligatures:normal;font-variant-caps:normal;font-variant-numeric:normal;font-feature-settings:normal;text-align:start;writing-mode:lr-tb;text-anchor:start;fill:#002a46"
         id="path903" />
      <path
         d="m 49.696455,265.41769 q -3.035156,0 -4.921875,-2.13281 -1.873047,-2.13281 -1.873047,-5.5918 0,-3.47265 1.873047,-5.60546 1.886719,-2.13282 4.921875,-2.13282 3.0625,0 4.935547,2.13282 1.873047,2.13281 1.873047,5.60546 0,3.45899 -1.873047,5.5918 -1.873047,2.13281 -4.935547,2.13281 z m 0,-2.11914 q 1.941406,0 3.089844,-1.51757 1.148437,-1.51758 1.148437,-4.0879 0,-2.57031 -1.148437,-4.08789 -1.148438,-1.53125 -3.089844,-1.53125 -1.941406,0 -3.089844,1.53125 -1.134765,1.51758 -1.134765,4.08789 0,2.57032 1.134765,4.0879 1.148438,1.51757 3.089844,1.51757 z"
         style="font-style:normal;font-variant:normal;font-weight:normal;font-stretch:normal;font-size:28px;font-family:Helvetica;-inkscape-font-specification:'Helvetica, Normal';font-variant-ligatures:normal;font-variant-caps:normal;font-variant-numeric:normal;font-feature-settings:normal;text-align:start;writing-mode:lr-tb;text-anchor:start;fill:#002a46"
         id="path905" />
      <path
         d="m 67.674971,265.02121 v -20.09766 0 h 1.353515 v 0 h 7.4375 q 2.925782,0 4.566407,1.47657 1.654296,1.46289 1.654296,4.06054 0,2.85742 -1.654296,4.47071 -1.640625,1.61328 -4.566407,1.61328 -3.841797,-0.0137 -6.070312,0.0273 v 0 8.44922 0 h -1.353516 -1.367187 z m 2.720703,-10.80078 v 0 h 5.40039 q 2.119141,0 3.103516,-0.88867 0.984375,-0.90235 0.984375,-2.81641 0,-1.69531 -0.984375,-2.47461 -0.984375,-0.79297 -3.103516,-0.79297 h -5.40039 v 0 z"
         style="font-style:normal;font-variant:normal;font-weight:normal;font-stretch:normal;font-size:28px;font-family:Helvetica;-inkscape-font-specification:'Helvetica, Normal';font-variant-ligatures:normal;font-variant-caps:normal;font-variant-numeric:normal;font-feature-settings:normal;text-align:start;writing-mode:lr-tb;text-anchor:start;fill:#002a46"
         id="path907" />
      <path
         d="m 85.872236,265.02121 v -14.62891 0 h 1.230469 1.230469 v 0 14.62891 0 h -1.230469 -1.230469 z m -0.02734,-20.09766 h 2.515625 v 2.78907 h -2.515625 z"
         style="font-style:normal;font-variant:normal;font-weight:normal;font-stretch:normal;font-size:28px;font-family:Helvetica;-inkscape-font-specification:'Helvetica, Normal';font-variant-ligatures:normal;font-variant-caps:normal;font-variant-numeric:normal;font-feature-settings:normal;text-align:start;writing-mode:lr-tb;text-anchor:start;fill:#002a46"
         id="path909" />
      <path
         d="m 97.985518,265.41769 q -3.035157,0 -4.921875,-2.13281 -1.873047,-2.13281 -1.873047,-5.5918 0,-3.47265 1.873047,-5.60546 1.886718,-2.13282 4.921875,-2.13282 3.062502,0 4.935542,2.13282 1.87305,2.13281 1.87305,5.60546 0,3.45899 -1.87305,5.5918 -1.87304,2.13281 -4.935542,2.13281 z m 0,-2.11914 q 1.941406,0 3.089842,-1.51757 1.14844,-1.51758 1.14844,-4.0879 0,-2.57031 -1.14844,-4.08789 -1.148436,-1.53125 -3.089842,-1.53125 -1.941407,0 -3.089844,1.53125 -1.134766,1.51758 -1.134766,4.08789 0,2.57032 1.134766,4.0879 1.148437,1.51757 3.089844,1.51757 z"
         style="font-style:normal;font-variant:normal;font-weight:normal;font-stretch:normal;font-size:28px;font-family:Helvetica;-inkscape-font-specification:'Helvetica, Normal';font-variant-ligatures:normal;font-variant-caps:normal;font-variant-numeric:normal;font-feature-settings:normal;text-align:start;writing-mode:lr-tb;text-anchor:start;fill:#002a46"
         id="path911" />
      <path
         d="m 107.66521,265.02121 v -20.09766 0 h 1.23046 1.23047 v 0 20.09766 0 h -1.23047 -1.23046 z"
         style="font-style:normal;font-variant:normal;font-weight:normal;font-stretch:normal;font-size:28px;font-family:Helvetica;-inkscape-font-specification:'Helvetica, Normal';font-variant-ligatures:normal;font-variant-caps:normal;font-variant-numeric:normal;font-feature-settings:normal;text-align:start;writing-mode:lr-tb;text-anchor:start;fill:#002a46"
         id="path913" />
      <path
         d="m 113.92692,265.02121 v -14.62891 0 h 1.23047 1.23047 v 0 14.62891 0 h -1.23047 -1.23047 z m -0.0273,-20.09766 h 2.51563 v 2.78907 h -2.51563 z"
         style="font-style:normal;font-variant:normal;font-weight:normal;font-stretch:normal;font-size:28px;font-family:Helvetica;-inkscape-font-specification:'Helvetica, Normal';font-variant-ligatures:normal;font-variant-caps:normal;font-variant-numeric:normal;font-feature-settings:normal;text-align:start;writing-mode:lr-tb;text-anchor:start;fill:#002a46"
         id="path915" />
    </g>
  </g>
</svg>
